<?xml version="1.0" encoding="iso-8859-1"?>
<!-- Generator: Adobe Illustrator 19.0.0, SVG Export Plug-In . SVG Version: 6.00 Build 0)  -->
<svg version="1.1" id="Layer_1" xmlns="http://www.w3.org/2000/svg" xmlns:xlink="http://www.w3.org/1999/xlink" x="0px" y="0px"
	 viewBox="0 0 512 512" style="enable-background:new 0 0 512 512;" xml:space="preserve">
<path style="fill:#5683BF;" d="M473.372,116.616H38.628C17.329,116.616,0,133.945,0,155.244v301.469
	c0,21.299,17.329,38.628,38.628,38.628h434.745c21.3,0,38.628-17.329,38.628-38.628V155.244
	C512,133.945,494.671,116.616,473.372,116.616z"/>
<path style="fill:#486D9A;" d="M256,116.616H37.808C16.96,116.616,0,133.945,0,155.244v301.469c0,21.299,16.96,38.628,37.808,38.628
	H256V116.616z"/>
<path style="fill:#E6E7E4;" d="M44.425,440.66V171.297c0-5.664,4.591-10.256,10.256-10.256h402.637
	c5.664,0,10.256,4.591,10.256,10.256v269.362c0,5.664-4.591,10.256-10.256,10.256H54.681
	C49.017,450.915,44.425,446.324,44.425,440.66z"/>
<path style="fill:#CED0CD;" d="M256,161.041H54.419c-5.52,0-9.993,4.591-9.993,10.256v269.362c0,5.664,4.475,10.256,9.993,10.256
	H256V161.041z"/>
<path style="fill:#CD5838;" d="M174.308,184.364c-10.378,0-18.82-8.443-18.82-18.82v-52.321c0-10.378,8.443-18.821,18.82-18.821
	h7.895c9.766,0,17.71-7.944,17.71-17.709V57.532c0-22.537,18.335-40.872,40.872-40.872h30.429c22.537,0,40.872,18.335,40.872,40.872
	v19.163c0,9.765,7.944,17.709,17.709,17.709h7.895c10.378,0,18.821,8.443,18.821,18.82v52.321c0,10.378-8.443,18.82-18.82,18.82
	H174.308V184.364z"/>
<g>
	<path style="fill:#ECB45D;" d="M396.59,257.556l-10.971-21.94c-0.019-0.039-0.043-0.073-0.063-0.111
		c-0.04-0.077-0.084-0.149-0.127-0.224c-0.138-0.247-0.285-0.483-0.444-0.711c-0.047-0.067-0.092-0.134-0.141-0.2
		c-0.438-0.59-0.944-1.106-1.503-1.548c-0.026-0.02-0.047-0.044-0.072-0.064c-0.027-0.021-0.057-0.036-0.083-0.056
		c-0.289-0.218-0.585-0.421-0.896-0.599c-0.003-0.002-0.007-0.004-0.011-0.007c-0.3-0.17-0.613-0.314-0.931-0.445
		c-0.093-0.039-0.187-0.073-0.281-0.109c-0.261-0.097-0.525-0.181-0.794-0.251c-0.068-0.018-0.133-0.04-0.201-0.057
		c-0.323-0.076-0.651-0.129-0.982-0.165c-0.093-0.011-0.188-0.016-0.281-0.023c-0.272-0.021-0.545-0.029-0.821-0.023
		c-0.078,0.001-0.155,0-0.233,0.003c-0.341,0.017-0.683,0.054-1.023,0.113c-0.068,0.012-0.134,0.03-0.201,0.043
		c-0.279,0.056-0.555,0.128-0.831,0.213c-0.092,0.029-0.183,0.057-0.275,0.089c-0.332,0.116-0.661,0.247-0.983,0.408l-21.899,10.95
		c-4.08,2.04-6.065,6.964-4.148,11.102c1.984,4.283,7.095,6.05,11.286,3.955l5.926-2.963c-10.901,36.546-29.835,63.605-56.43,80.569
		c-30.801,19.647-76.682,21.547-100.7,20.321c-4.753-0.242-8.744,3.527-8.744,8.286l0,0c0,4.471,3.538,8.134,8.007,8.294
		c8.31,0.297,19.974,0.493,24.931,0.493c23.473,0,55.64-4.383,85.309-23.251c29.388-18.691,50.39-47.836,62.626-86.806l1.218,2.436
		c1.458,2.919,4.401,4.606,7.457,4.606c1.423,0,2.871-0.368,4.206-1.145C397.324,266.505,398.576,261.528,396.59,257.556z"/>
	<path style="fill:#ECB45D;" d="M167.15,336.521c13.778,0,24.989,11.211,24.989,24.989s-11.211,24.989-24.989,24.989
		s-24.989-11.211-24.989-24.989S153.371,336.521,167.15,336.521z"/>
</g>
<path style="fill:#A7492E;" d="M94.621,267.444c1.627,1.626,3.759,2.439,5.891,2.439s4.264-0.813,5.891-2.439l10.769-10.769
	l10.769,10.769c1.627,1.626,3.759,2.439,5.891,2.439c2.131,0,4.264-0.813,5.891-2.439c3.253-3.254,3.253-8.527,0-11.78
	l-10.769-10.769l10.769-10.769c3.253-3.254,3.253-8.527,0-11.78c-3.254-3.252-8.527-3.252-11.78,0l-10.769,10.769l-10.769-10.769
	c-3.254-3.252-8.527-3.252-11.78,0c-3.253,3.254-3.253,8.527,0,11.78l10.769,10.769l-10.769,10.769
	C91.369,258.917,91.369,264.19,94.621,267.444z"/>
<path style="fill:#CED0CD;" d="M395.166,355.619c-3.254-3.252-8.527-3.252-11.78,0c-3.253,3.254-3.253,8.527,0,11.78l10.769,10.769
	l-10.769,10.769c-3.253,3.254-3.253,8.527,0,11.78c1.627,1.626,3.759,2.439,5.891,2.439c2.131,0,4.264-0.813,5.891-2.439
	l10.769-10.769l10.769,10.769c1.627,1.626,3.759,2.439,5.891,2.439c2.131,0,4.264-0.813,5.891-2.439
	c3.253-3.254,3.253-8.527,0-11.78l-10.769-10.769l10.769-10.769c3.253-3.254,3.253-8.527,0-11.78c-3.254-3.252-8.527-3.252-11.78,0
	l-10.769,10.769L395.166,355.619z"/>
<path style="fill:#A7492E;" d="M239.003,289.656c1.627,1.626,3.759,2.439,5.891,2.439s4.264-0.813,5.891-2.439l10.769-10.769
	l10.769,10.769c1.627,1.626,3.759,2.439,5.891,2.439s4.264-0.813,5.891-2.439c3.253-3.254,3.253-8.527,0-11.78l-10.769-10.769
	l10.769-10.769c3.253-3.254,3.253-8.527,0-11.78c-3.254-3.252-8.527-3.252-11.78,0l-10.769,10.769l-10.769-10.769
	c-3.254-3.252-8.527-3.252-11.78,0c-3.253,3.254-3.253,8.527,0,11.78l10.769,10.769l-10.769,10.769
	C235.751,281.129,235.751,286.402,239.003,289.656z"/>
<path style="fill:#B72C11;" d="M256,16.659h-15.215c-22.537,0-40.872,18.335-40.872,40.872v19.163
	c0,9.765-7.944,17.709-17.709,17.709h-7.895c-10.378,0-18.821,8.443-18.821,18.82v52.321c0,10.378,8.443,18.82,18.82,18.82H256
	V16.659z"/>
<path style="fill:#ECE5DD;" d="M256,151.046c-12.555,0-22.768-10.213-22.768-22.768S243.445,105.51,256,105.51
	c12.555,0,22.768,10.213,22.768,22.768S268.555,151.046,256,151.046z"/>
<g>
</g>
<g>
</g>
<g>
</g>
<g>
</g>
<g>
</g>
<g>
</g>
<g>
</g>
<g>
</g>
<g>
</g>
<g>
</g>
<g>
</g>
<g>
</g>
<g>
</g>
<g>
</g>
<g>
</g>
</svg>
