<?xml version="1.0" encoding="iso-8859-1"?>
<!-- Generator: Adobe Illustrator 16.0.0, SVG Export Plug-In . SVG Version: 6.00 Build 0)  -->
<!DOCTYPE svg PUBLIC "-//W3C//DTD SVG 1.1//EN" "http://www.w3.org/Graphics/SVG/1.1/DTD/svg11.dtd">
<svg version="1.1" id="Capa_1" xmlns="http://www.w3.org/2000/svg" xmlns:xlink="http://www.w3.org/1999/xlink" x="0px" y="0px"
	 width="35px" height="35px" viewBox="0 0 374.735 374.735" style="enable-background:new 0 0 374.735 374.735;"
	 xml:space="preserve">
<g>
	<path style="fill:#030303;" d="M187.367,0C84.052,0,0,84.052,0,187.368c0,71.28,40.015,133.378,98.756,165.045
		c26.4,14.231,56.577,22.322,88.611,22.322c34.611,0,67.027-9.469,94.879-25.896c55.288-32.609,92.489-92.758,92.489-161.471
		C374.735,84.052,290.681,0,187.367,0z M276.786,324.686c-9.973-17.697-32.29-31.478-60.143-36.909v-20.654
		c20.002-12.407,33.816-38.401,33.816-68.547c0-42.162-26.938-76.341-60.165-76.341c-33.227,0-60.162,34.176-60.162,76.341
		c0,30.156,13.812,56.145,33.813,68.547v20.66c-29.342,5.7-52.58,20.636-61.692,39.666c-47.233-28.808-78.834-80.818-78.834-140.08
		c0-90.399,73.548-163.947,163.946-163.947c90.402,0,163.947,73.548,163.947,163.947C351.314,244.8,321.615,295.393,276.786,324.686
		z"/>
</g>
<g>
</g>
<g>
</g>
<g>
</g>
<g>
</g>
<g>
</g>
<g>
</g>
<g>
</g>
<g>
</g>
<g>
</g>
<g>
</g>
<g>
</g>
<g>
</g>
<g>
</g>
<g>
</g>
<g>
</g>
</svg>
